<svg width="324" height="183" viewBox="0 0 324 183" fill="none" xmlns="http://www.w3.org/2000/svg">
<path d="M49.6867 127.31C35.3867 127.31 24.0567 123.35 15.6967 115.43C7.33674 107.4 3.15674 95.96 3.15674 81.11V53.39C3.15674 38.54 7.33674 27.155 15.6967 19.235C24.0567 11.205 35.3867 7.18999 49.6867 7.18999C63.8767 7.18999 74.8217 11.095 82.5217 18.905C90.3317 26.605 94.2367 37.22 94.2367 50.75V51.74H72.7867V50.09C72.7867 43.27 70.8617 37.66 67.0117 33.26C63.2717 28.86 57.4967 26.66 49.6867 26.66C41.9867 26.66 35.9367 29.025 31.5367 33.755C27.1367 38.485 24.9367 44.92 24.9367 53.06V81.44C24.9367 89.47 27.1367 95.905 31.5367 100.745C35.9367 105.475 41.9867 107.84 49.6867 107.84C57.4967 107.84 63.2717 105.64 67.0117 101.24C70.8617 96.73 72.7867 91.12 72.7867 84.41V81.44H94.2367V83.75C94.2367 97.28 90.3317 107.95 82.5217 115.76C74.8217 123.46 63.8767 127.31 49.6867 127.31Z" fill="#00B2CA"/>
<path d="M241.476 125V9.49999H263.256V105.2H316.056V125H241.476Z" fill="#00B2CA"/>
<path d="M19.6503 171.36C16.237 171.36 13.5303 170.4 11.5303 168.48C9.53029 166.533 8.53029 163.733 8.53029 160.08V153.52C8.53029 149.866 9.53029 147.08 11.5303 145.16C13.5303 143.213 16.237 142.24 19.6503 142.24C23.0103 142.24 25.597 143.173 27.4103 145.04C29.2503 146.906 30.1703 149.453 30.1703 152.68V152.92H25.8903V152.56C25.8903 150.666 25.3703 149.12 24.3303 147.92C23.317 146.72 21.757 146.12 19.6503 146.12C17.517 146.12 15.8503 146.773 14.6503 148.08C13.4503 149.36 12.8503 151.146 12.8503 153.44V160.16C12.8503 162.426 13.4503 164.213 14.6503 165.52C15.8503 166.826 17.517 167.48 19.6503 167.48C21.757 167.48 23.317 166.88 24.3303 165.68C25.3703 164.453 25.8903 162.906 25.8903 161.04V160.36H30.1703V160.92C30.1703 164.146 29.2503 166.693 27.4103 168.56C25.597 170.426 23.0103 171.36 19.6503 171.36ZM40.3619 170.8L48.9619 156.68L40.4819 142.8H45.4419L51.7619 153.6H52.4019L58.7619 142.8H63.7219L55.2419 156.68L63.8419 170.8H58.8419L52.4019 159.76H51.7619L45.3219 170.8H40.3619ZM81.4715 171.36C80.0582 171.36 78.7915 171.12 77.6715 170.64C76.5782 170.16 75.6982 169.453 75.0315 168.52C74.3915 167.586 74.0715 166.453 74.0715 165.12C74.0715 163.76 74.3915 162.64 75.0315 161.76C75.6982 160.853 76.5915 160.173 77.7115 159.72C78.8582 159.266 80.1515 159.04 81.5915 159.04H87.5915V157.76C87.5915 156.613 87.2449 155.693 86.5515 155C85.8582 154.306 84.7915 153.96 83.3515 153.96C81.9382 153.96 80.8582 154.293 80.1115 154.96C79.3649 155.626 78.8715 156.493 78.6315 157.56L74.7915 156.32C75.1115 155.253 75.6182 154.293 76.3115 153.44C77.0315 152.56 77.9782 151.853 79.1515 151.32C80.3249 150.786 81.7382 150.52 83.3915 150.52C85.9515 150.52 87.9649 151.173 89.4315 152.48C90.8982 153.786 91.6315 155.64 91.6315 158.04V166.16C91.6315 166.96 92.0049 167.36 92.7515 167.36H94.4315V170.8H91.3515C90.4182 170.8 89.6582 170.56 89.0715 170.08C88.4849 169.6 88.1915 168.946 88.1915 168.12V168H87.5915C87.3782 168.4 87.0582 168.866 86.6315 169.4C86.2049 169.933 85.5782 170.4 84.7515 170.8C83.9249 171.173 82.8315 171.36 81.4715 171.36ZM82.0715 167.96C83.7249 167.96 85.0582 167.493 86.0715 166.56C87.0849 165.6 87.5915 164.293 87.5915 162.64V162.24H81.8315C80.7382 162.24 79.8582 162.48 79.1915 162.96C78.5249 163.413 78.1915 164.093 78.1915 165C78.1915 165.906 78.5382 166.626 79.2315 167.16C79.9249 167.693 80.8715 167.96 82.0715 167.96ZM106.037 170.8V151.08H110.077V154.04H110.717C111.091 153.24 111.757 152.493 112.717 151.8C113.677 151.106 115.104 150.76 116.997 150.76C118.491 150.76 119.811 151.093 120.957 151.76C122.131 152.426 123.051 153.373 123.717 154.6C124.384 155.8 124.717 157.253 124.717 158.96V170.8H120.597V159.28C120.597 157.573 120.171 156.32 119.317 155.52C118.464 154.693 117.291 154.28 115.797 154.28C114.091 154.28 112.717 154.84 111.677 155.96C110.664 157.08 110.157 158.706 110.157 160.84V170.8H106.037Z" fill="#FF6B6B"/>
<path d="M140.727 171.36C139.794 171.36 139.007 171.053 138.367 170.44C137.754 169.826 137.447 169.04 137.447 168.08C137.447 167.12 137.754 166.346 138.367 165.76C139.007 165.146 139.794 164.84 140.727 164.84C141.66 164.84 142.434 165.146 143.047 165.76C143.687 166.373 144.007 167.146 144.007 168.08C144.007 169.04 143.687 169.826 143.047 170.44C142.434 171.053 141.66 171.36 140.727 171.36ZM156.782 170.8V142.8H161.102V166.88H174.582V170.8H156.782ZM192.379 171.36C190.966 171.36 189.699 171.12 188.579 170.64C187.486 170.16 186.606 169.453 185.939 168.52C185.299 167.586 184.979 166.453 184.979 165.12C184.979 163.76 185.299 162.64 185.939 161.76C186.606 160.853 187.499 160.173 188.619 159.72C189.766 159.266 191.059 159.04 192.499 159.04H198.499V157.76C198.499 156.613 198.153 155.693 197.459 155C196.766 154.306 195.699 153.96 194.259 153.96C192.846 153.96 191.766 154.293 191.019 154.96C190.273 155.626 189.779 156.493 189.539 157.56L185.699 156.32C186.019 155.253 186.526 154.293 187.219 153.44C187.939 152.56 188.886 151.853 190.059 151.32C191.233 150.786 192.646 150.52 194.299 150.52C196.859 150.52 198.873 151.173 200.339 152.48C201.806 153.786 202.539 155.64 202.539 158.04V166.16C202.539 166.96 202.913 167.36 203.659 167.36H205.339V170.8H202.259C201.326 170.8 200.566 170.56 199.979 170.08C199.393 169.6 199.099 168.946 199.099 168.12V168H198.499C198.286 168.4 197.966 168.866 197.539 169.4C197.113 169.933 196.486 170.4 195.659 170.8C194.833 171.173 193.739 171.36 192.379 171.36ZM192.979 167.96C194.633 167.96 195.966 167.493 196.979 166.56C197.993 165.6 198.499 164.293 198.499 162.64V162.24H192.739C191.646 162.24 190.766 162.48 190.099 162.96C189.433 163.413 189.099 164.093 189.099 165C189.099 165.906 189.446 166.626 190.139 167.16C190.833 167.693 191.779 167.96 192.979 167.96ZM228.345 171.36C226.425 171.36 224.945 171.013 223.905 170.32C222.892 169.626 222.132 168.853 221.625 168H220.985V170.8H216.945V142.8H221.065V153.76H221.705C222.025 153.226 222.452 152.72 222.985 152.24C223.519 151.733 224.225 151.32 225.105 151C225.985 150.68 227.065 150.52 228.345 150.52C229.999 150.52 231.519 150.92 232.905 151.72C234.292 152.52 235.399 153.68 236.225 155.2C237.052 156.72 237.465 158.533 237.465 160.64V161.24C237.465 163.373 237.039 165.2 236.185 166.72C235.359 168.213 234.252 169.36 232.865 170.16C231.505 170.96 229.999 171.36 228.345 171.36ZM227.145 167.76C228.932 167.76 230.399 167.186 231.545 166.04C232.719 164.893 233.305 163.253 233.305 161.12V160.76C233.305 158.653 232.732 157.026 231.585 155.88C230.439 154.733 228.959 154.16 227.145 154.16C225.385 154.16 223.919 154.733 222.745 155.88C221.599 157.026 221.025 158.653 221.025 160.76V161.12C221.025 163.253 221.599 164.893 222.745 166.04C223.919 167.186 225.385 167.76 227.145 167.76ZM258.25 171.36C255.744 171.36 253.664 170.8 252.01 169.68C250.357 168.56 249.344 166.866 248.97 164.6L252.81 163.68C253.024 164.773 253.384 165.64 253.89 166.28C254.397 166.92 255.024 167.373 255.77 167.64C256.544 167.906 257.37 168.04 258.25 168.04C259.557 168.04 260.557 167.786 261.25 167.28C261.97 166.773 262.33 166.12 262.33 165.32C262.33 164.52 261.997 163.933 261.33 163.56C260.664 163.186 259.677 162.88 258.37 162.64L257.01 162.4C255.677 162.16 254.464 161.813 253.37 161.36C252.277 160.906 251.41 160.28 250.77 159.48C250.13 158.68 249.81 157.653 249.81 156.4C249.81 154.533 250.504 153.093 251.89 152.08C253.277 151.04 255.117 150.52 257.41 150.52C259.624 150.52 261.437 151.026 262.85 152.04C264.29 153.026 265.224 154.373 265.65 156.08L261.81 157.16C261.57 155.96 261.064 155.12 260.29 154.64C259.517 154.133 258.557 153.88 257.41 153.88C256.29 153.88 255.41 154.093 254.77 154.52C254.13 154.92 253.81 155.493 253.81 156.24C253.81 157.04 254.117 157.626 254.73 158C255.37 158.373 256.224 158.653 257.29 158.84L258.69 159.08C260.104 159.32 261.397 159.653 262.57 160.08C263.744 160.506 264.664 161.12 265.33 161.92C266.024 162.72 266.37 163.786 266.37 165.12C266.37 167.093 265.637 168.626 264.17 169.72C262.704 170.813 260.73 171.36 258.25 171.36ZM290.946 180.4C288.173 180.4 285.813 179.92 283.866 178.96C281.919 178 280.439 176.493 279.426 174.44C278.439 172.413 277.946 169.8 277.946 166.6V154.6C277.946 151.4 278.439 148.786 279.426 146.76C280.439 144.706 281.919 143.2 283.866 142.24C285.813 141.28 288.173 140.8 290.946 140.8V144.32C287.906 144.346 285.639 145.213 284.146 146.92C282.679 148.6 281.946 151.213 281.946 154.76V166.44C281.946 169.986 282.679 172.6 284.146 174.28C285.639 175.986 287.906 176.853 290.946 176.88V180.4ZM299.677 180.4V176.88C302.77 176.853 305.05 175.986 306.517 174.28C307.984 172.6 308.717 169.986 308.717 166.44V154.76C308.717 151.213 307.984 148.6 306.517 146.92C305.05 145.213 302.77 144.346 299.677 144.32V140.8C302.477 140.8 304.837 141.28 306.757 142.24C308.704 143.2 310.17 144.706 311.157 146.76C312.17 148.786 312.677 151.4 312.677 154.6V166.6C312.677 169.8 312.17 172.413 311.157 174.44C310.17 176.493 308.704 178 306.757 178.96C304.837 179.92 302.477 180.4 299.677 180.4Z" fill="#E5C07B"/>
<path d="M190.179 66.4474L188.056 69.9035L156.61 107.508L89.9941 0.0997925L149.03 0.0997925L190.179 66.4474Z" fill="#FF6B6B"/>
<path d="M189.812 67.006L147.958 134.9H89.3004L156.13 26.4904L189.812 67.006Z" fill="#FF6B6B"/>
<path d="M191.388 64.383L162.15 17.2033L172.715 0.000183105H230.928L191.388 64.383ZM202.944 30.8C202.497 30.8 202.154 30.8771 201.914 31.0305C201.674 31.177 201.498 31.3471 201.384 31.5402H201.204V30.9406H199.963V37.9006H201.224V35.3303H201.404C201.477 35.4436 201.574 35.5568 201.694 35.6701C201.821 35.7768 201.984 35.8632 202.184 35.9299C202.391 36.0032 202.644 36.0402 202.944 36.0402C203.344 36.0402 203.714 35.9435 204.054 35.7502C204.394 35.5502 204.667 35.26 204.874 34.8801C205.08 34.5001 205.184 34.0402 205.184 33.5002V33.34C205.184 32.8001 205.08 32.3401 204.874 31.9601C204.667 31.5803 204.394 31.2931 204.054 31.0998C203.714 30.8998 203.344 30.8 202.944 30.8ZM185.061 30.8C184.475 30.8 184.001 30.9338 183.641 31.2004C183.281 31.4604 183.101 31.837 183.101 32.3303C183.101 32.6569 183.189 32.9234 183.362 33.1301C183.535 33.3367 183.765 33.5003 184.051 33.6203C184.338 33.7336 184.655 33.8232 185.002 33.8898L185.282 33.9406C185.575 33.9939 185.788 34.0639 185.921 34.1506C186.055 34.2306 186.122 34.3469 186.122 34.5002C186.122 34.6534 186.051 34.7832 185.912 34.8898C185.772 34.9898 185.555 35.0402 185.261 35.0402C185.068 35.0402 184.888 35.0135 184.721 34.9601C184.561 34.9001 184.424 34.8034 184.311 34.6701C184.205 34.5368 184.128 34.3534 184.082 34.1203L182.921 34.4201C183.008 34.9401 183.258 35.3403 183.671 35.6203C184.085 35.9003 184.615 36.0402 185.261 36.0402C185.895 36.0402 186.398 35.9002 186.771 35.6203C187.151 35.3337 187.341 34.9303 187.341 34.4103C187.341 34.0637 187.252 33.79 187.072 33.59C186.899 33.3834 186.658 33.227 186.351 33.1203C186.051 33.007 185.715 32.9164 185.341 32.8498L185.061 32.8C184.835 32.76 184.654 32.7034 184.521 32.6301C184.388 32.5501 184.322 32.4303 184.322 32.2707C184.322 32.124 184.385 32.0099 184.511 31.9299C184.638 31.8433 184.821 31.8 185.061 31.8C185.301 31.8 185.502 31.8535 185.662 31.9601C185.828 32.0668 185.938 32.2469 185.992 32.5002L187.162 32.1398C187.048 31.74 186.808 31.4167 186.441 31.1701C186.074 30.9236 185.614 30.8 185.061 30.8ZM189.345 28.9006V35.9006H190.606V33.3801C190.606 32.9204 190.712 32.564 190.925 32.3107C191.139 32.0507 191.439 31.9201 191.826 31.9201C192.166 31.9201 192.426 32.0137 192.606 32.2004C192.793 32.387 192.885 32.6671 192.885 33.0402V35.9006H194.145V32.9406C194.145 32.5274 194.066 32.1671 193.906 31.8605C193.746 31.5472 193.519 31.3034 193.225 31.1301C192.939 30.9502 192.602 30.8605 192.215 30.8605C191.922 30.8605 191.679 30.8967 191.486 30.9699C191.299 31.0366 191.149 31.124 191.036 31.2307C190.923 31.3372 190.839 31.4434 190.786 31.55H190.606V28.9006H189.345ZM196.408 30.9406V35.9006H197.668V30.9406H196.408ZM202.564 31.9006C202.951 31.9006 203.274 32.0271 203.534 32.2805C203.794 32.5271 203.924 32.8903 203.924 33.3703V33.4699C203.924 33.9499 203.794 34.3172 203.534 34.5705C203.281 34.817 202.957 34.9406 202.564 34.9406C202.178 34.9406 201.854 34.817 201.594 34.5705C201.334 34.3172 201.204 33.9499 201.204 33.4699V33.3703C201.204 32.8903 201.334 32.5271 201.594 32.2805C201.854 32.0272 202.177 31.9006 202.564 31.9006ZM176.4 31.4006L179.38 32.3107V32.4904L176.4 33.4006V34.5998L180.6 33.1799V31.6203L176.4 30.2004V31.4006ZM197.038 28.7599C196.811 28.76 196.618 28.834 196.458 28.9807C196.304 29.1273 196.228 29.3209 196.228 29.5607C196.228 29.8004 196.305 29.9933 196.458 30.1398C196.618 30.2865 196.811 30.3605 197.038 30.3605C197.271 30.3605 197.464 30.2865 197.618 30.1398C197.771 29.9933 197.847 29.8004 197.847 29.5607C197.847 29.3209 197.771 29.1273 197.618 28.9807C197.464 28.834 197.271 28.7599 197.038 28.7599ZM183.401 15.9006V22.9006H184.641V22.3H184.822C184.935 22.4867 185.111 22.6574 185.351 22.8107C185.591 22.9641 185.935 23.0402 186.381 23.0402C186.781 23.0402 187.152 22.9435 187.492 22.7502C187.832 22.5502 188.105 22.26 188.311 21.8801C188.518 21.5001 188.622 21.0402 188.622 20.5002V20.34C188.622 19.8001 188.518 19.3401 188.311 18.9601C188.104 18.5803 187.832 18.2931 187.492 18.0998C187.152 17.8998 186.781 17.8 186.381 17.8C186.082 17.8 185.828 17.837 185.622 17.9103C185.422 17.977 185.258 18.0635 185.131 18.1701C185.012 18.2767 184.915 18.39 184.841 18.5099H184.662V15.9006H183.401ZM209.373 15.9006V18.5099H209.193C209.126 18.39 209.03 18.2767 208.903 18.1701C208.776 18.0635 208.61 17.977 208.403 17.9103C208.203 17.837 207.953 17.8 207.653 17.8C207.253 17.8 206.883 17.8998 206.543 18.0998C206.203 18.2931 205.93 18.5803 205.723 18.9601C205.517 19.3401 205.413 19.8001 205.413 20.34V20.5002C205.413 21.0402 205.517 21.5001 205.723 21.8801C205.93 22.2599 206.203 22.5502 206.543 22.7502C206.889 22.9435 207.26 23.0402 207.653 23.0402C208.106 23.0402 208.45 22.964 208.683 22.8107C208.923 22.6574 209.1 22.4867 209.213 22.3H209.393V22.9006H210.633V15.9006H209.373ZM190.838 17.9406V20.9006C190.839 21.3071 190.919 21.6674 191.079 21.9807C191.239 22.2938 191.462 22.54 191.749 22.7199C192.042 22.8932 192.382 22.9806 192.768 22.9807C193.215 22.9807 193.548 22.9003 193.768 22.7404C193.988 22.5804 194.138 22.4168 194.218 22.2502H194.398V22.9006H195.638V17.9406H194.379V20.4601C194.379 20.9201 194.272 21.2802 194.058 21.5402C193.845 21.7934 193.545 21.92 193.159 21.9201C192.819 21.9201 192.555 21.8265 192.369 21.6398C192.189 21.4532 192.098 21.1733 192.098 20.8V17.9406H190.838ZM198.14 17.9406V22.9006H199.401V17.9406H198.14ZM201.897 15.9006V22.9006H203.157V15.9006H201.897ZM186.002 18.9006C186.395 18.9006 186.718 19.0271 186.971 19.2805C187.231 19.5271 187.362 19.8903 187.362 20.3703V20.4699C187.362 20.9499 187.231 21.3172 186.971 21.5705C186.711 21.817 186.388 21.9406 186.002 21.9406C185.615 21.9406 185.292 21.817 185.032 21.5705C184.772 21.3172 184.641 20.9499 184.641 20.4699V20.3703C184.641 19.8903 184.772 19.5271 185.032 19.2805C185.292 19.0272 185.615 18.9006 186.002 18.9006ZM208.033 18.9006C208.426 18.9006 208.749 19.0272 209.003 19.2805C209.263 19.5271 209.393 19.8903 209.393 20.3703V20.4699C209.393 20.9499 209.263 21.3172 209.003 21.5705C208.743 21.8169 208.419 21.9406 208.033 21.9406C207.646 21.9406 207.323 21.817 207.063 21.5705C206.803 21.3172 206.673 20.9499 206.673 20.4699V20.3703C206.673 19.8903 206.803 19.5271 207.063 19.2805C207.323 19.0272 207.646 18.9006 208.033 18.9006ZM176.4 18.4006L179.38 19.3107V19.4904L176.4 20.4006V21.5998L180.6 20.1799V18.6203L176.4 17.2004V18.4006ZM198.77 15.7599C198.544 15.76 198.35 15.8341 198.19 15.9807C198.037 16.1273 197.961 16.321 197.961 16.5607C197.961 16.8003 198.037 16.9933 198.19 17.1398C198.35 17.2864 198.544 17.3604 198.77 17.3605C199.003 17.3605 199.197 17.2865 199.35 17.1398C199.503 16.9933 199.581 16.8005 199.581 16.5607C199.581 16.3207 199.503 16.1273 199.35 15.9807C199.197 15.834 199.003 15.7599 198.77 15.7599ZM190.878 3.90057V6.50995H190.698C190.631 6.39001 190.534 6.27672 190.408 6.1701C190.281 6.06346 190.114 5.977 189.908 5.91034C189.708 5.83701 189.458 5.8 189.158 5.79999C188.758 5.79999 188.387 5.8998 188.047 6.09979C187.708 6.29308 187.435 6.58027 187.228 6.96014C187.021 7.34009 186.918 7.80012 186.918 8.34003V8.50018C186.918 9.04018 187.021 9.50007 187.228 9.88007C187.435 10.26 187.708 10.5502 188.047 10.7502C188.394 10.9435 188.764 11.0402 189.158 11.0402C189.611 11.0402 189.955 10.9641 190.188 10.8107C190.428 10.6574 190.604 10.4866 190.717 10.3H190.898V10.9006H192.137V3.90057H190.878ZM196.875 5.79999C196.381 5.79999 195.948 5.90701 195.575 6.1203C195.202 6.32692 194.911 6.6234 194.705 7.00995C194.498 7.38995 194.395 7.84053 194.395 8.36053V8.48065C194.395 9.00041 194.498 9.4535 194.705 9.84003C194.918 10.22 195.211 10.5173 195.585 10.7307C195.965 10.9373 196.402 11.0402 196.895 11.0402C197.348 11.0402 197.721 10.9701 198.014 10.8303C198.307 10.6837 198.541 10.5106 198.714 10.3107C198.894 10.1041 199.031 9.91371 199.125 9.74042L198.094 9.20038C198.008 9.38695 197.881 9.55687 197.714 9.71014C197.548 9.86344 197.287 9.94061 196.934 9.94061C196.588 9.94052 196.294 9.83354 196.054 9.6203C195.814 9.40699 195.688 9.13014 195.674 8.79022H199.285V8.36053C199.285 7.854 199.185 7.41039 198.985 7.03046C198.785 6.64388 198.505 6.34339 198.145 6.13007C197.785 5.91007 197.361 5.79999 196.875 5.79999ZM203.566 5.79999C203.139 5.8 202.776 5.86688 202.476 6.00018C202.183 6.12681 201.946 6.29671 201.766 6.50995C201.593 6.71662 201.466 6.94704 201.386 7.20038L202.546 7.59003C202.593 7.36349 202.693 7.18017 202.846 7.04022C203 6.89361 203.233 6.8205 203.546 6.8205C203.866 6.82055 204.099 6.89694 204.246 7.04999C204.392 7.19665 204.466 7.38697 204.466 7.6203V7.90057H203.106C202.733 7.90058 202.399 7.96027 202.106 8.08026C201.82 8.19353 201.593 8.36669 201.426 8.59979C201.266 8.82646 201.186 9.11038 201.186 9.45038C201.186 9.79032 201.266 10.0805 201.426 10.3205C201.593 10.5537 201.816 10.7339 202.096 10.8605C202.376 10.9805 202.693 11.0402 203.046 11.0402C203.393 11.0402 203.666 10.9898 203.866 10.8898C204.066 10.7898 204.213 10.6767 204.306 10.55C204.399 10.417 204.459 10.3106 204.486 10.2307H204.676V10.2404C204.676 10.4403 204.757 10.5999 204.917 10.7199C205.077 10.8398 205.279 10.9005 205.526 10.9006H206.366V9.86053H205.966C205.78 9.86053 205.686 9.76041 205.686 9.56073V7.71014C205.686 7.09019 205.496 6.61687 205.116 6.29022C204.736 5.96367 204.219 5.79999 203.566 5.79999ZM215.751 5.79999C215.257 5.80002 214.824 5.907 214.451 6.1203C214.078 6.32694 213.787 6.62338 213.581 7.00995C213.374 7.38995 213.271 7.84053 213.271 8.36053V8.48065C213.271 9.00037 213.374 9.45351 213.581 9.84003C213.794 10.22 214.087 10.5173 214.461 10.7307C214.841 10.9373 215.278 11.0402 215.771 11.0402C216.224 11.0402 216.598 10.9702 216.891 10.8303C217.184 10.6837 217.417 10.5105 217.59 10.3107C217.77 10.1042 217.907 9.91369 218.001 9.74042L216.971 9.20038C216.885 9.38705 216.757 9.55681 216.59 9.71014C216.424 9.86333 216.164 9.94057 215.811 9.94061C215.465 9.94061 215.171 9.83348 214.931 9.6203C214.691 9.40697 214.564 9.13022 214.55 8.79022H218.161V8.36053C218.161 7.85396 218.061 7.41041 217.861 7.03046C217.661 6.64383 217.381 6.34339 217.021 6.13007C216.661 5.91007 216.237 5.79999 215.751 5.79999ZM183.401 5.94061V10.9006H184.662V5.94061H183.401ZM208.826 4.40057V5.94061H207.587V6.98065H208.826V9.78046C208.826 10.1201 208.926 10.3932 209.126 10.5998C209.332 10.7998 209.6 10.9006 209.926 10.9006H211.326V9.86053H210.366C210.179 9.86045 210.087 9.76032 210.087 9.56073V6.98065H211.446V5.94061H210.087V4.40057H208.826ZM204.466 8.84003V8.94061C204.466 9.26709 204.353 9.53073 204.127 9.73065C203.907 9.92397 203.62 10.0207 203.266 10.0207C203 10.0207 202.796 9.96313 202.656 9.84979C202.516 9.73652 202.446 9.59013 202.446 9.41034C202.446 9.23039 202.513 9.09041 202.646 8.99042C202.779 8.89045 202.963 8.84006 203.196 8.84003H204.466ZM189.538 6.90057C189.931 6.90057 190.254 7.02715 190.507 7.28046C190.767 7.52712 190.898 7.8903 190.898 8.3703V8.46991C190.898 8.94991 190.767 9.31716 190.507 9.5705C190.247 9.81699 189.924 9.94061 189.538 9.94061C189.151 9.94061 188.828 9.81699 188.568 9.5705C188.308 9.31716 188.177 8.94991 188.177 8.46991V8.3703C188.177 7.8903 188.308 7.52712 188.568 7.28046C188.828 7.02714 189.151 6.90058 189.538 6.90057ZM176.4 6.40057L179.38 7.31073V7.49042L176.4 8.40057V9.59979L180.6 8.17987V6.6203L176.4 5.20038V6.40057ZM196.865 6.90057C197.191 6.90061 197.455 6.98704 197.655 7.16034C197.861 7.33356 197.978 7.56342 198.004 7.84979H195.684C195.731 7.56342 195.855 7.33357 196.054 7.16034C196.254 6.98701 196.525 6.90057 196.865 6.90057ZM215.741 6.90057C216.067 6.90057 216.331 6.98701 216.531 7.16034C216.737 7.33357 216.854 7.56338 216.88 7.84979H214.561C214.608 7.56335 214.731 7.33357 214.931 7.16034C215.131 6.98712 215.401 6.90057 215.741 6.90057ZM184.032 3.75995C183.805 3.75995 183.612 3.83399 183.452 3.98065C183.298 4.12731 183.221 4.32075 183.221 4.56073C183.221 4.80048 183.299 4.99327 183.452 5.13983C183.612 5.2865 183.805 5.36053 184.032 5.36053C184.265 5.36045 184.459 5.28642 184.612 5.13983C184.765 4.99332 184.841 4.80027 184.841 4.56073C184.841 4.32096 184.765 4.12727 184.612 3.98065C184.459 3.83407 184.265 3.76003 184.032 3.75995Z" fill="#E5C07B"/>
<path d="M234.3 135.063H174.966L162.921 115.872L192.258 68.0998L234.3 135.063ZM202.56 128.464C202.267 128.464 202.017 128.563 201.812 128.761C201.614 128.952 201.515 129.201 201.515 129.509C201.515 129.817 201.614 130.07 201.812 130.268C202.017 130.458 202.267 130.554 202.56 130.554C202.861 130.554 203.11 130.458 203.308 130.268C203.506 130.07 203.605 129.817 203.605 129.509C203.605 129.201 203.506 128.952 203.308 128.761C203.11 128.563 202.861 128.464 202.56 128.464ZM208.623 122.546C207.714 122.546 206.984 122.806 206.434 123.326C205.884 123.84 205.609 124.592 205.609 125.582V127.518C205.609 128.537 205.884 129.3 206.434 129.806C206.984 130.304 207.714 130.554 208.623 130.554C209.539 130.554 210.269 130.305 210.812 129.806C211.362 129.3 211.636 128.537 211.636 127.518V125.582C211.636 124.592 211.362 123.84 210.812 123.326C210.269 122.806 209.539 122.546 208.623 122.546ZM214.692 128.464C214.399 128.464 214.149 128.563 213.944 128.761C213.746 128.952 213.647 129.201 213.647 129.509C213.647 129.817 213.746 130.07 213.944 130.268C214.149 130.458 214.399 130.554 214.692 130.554C214.993 130.554 215.242 130.458 215.44 130.268C215.638 130.07 215.737 129.817 215.737 129.509C215.737 129.201 215.638 128.952 215.44 128.761C215.242 128.563 214.993 128.464 214.692 128.464ZM188.118 124.944L189.855 130.4H192.055L193.794 124.944H192.319L191.054 129.388H190.856L189.591 124.944H188.118ZM196.663 122.699L195.089 126.176H196.564L197.597 123.734H197.796V130.4H199.204V122.699H196.663ZM208.623 123.8C209.114 123.8 209.503 123.946 209.789 124.239C210.082 124.525 210.229 124.951 210.229 125.516V127.562C210.229 128.119 210.097 128.548 209.833 128.849C209.576 129.149 209.173 129.3 208.623 129.3C208.087 129.3 207.684 129.156 207.413 128.87C207.149 128.577 207.017 128.141 207.017 127.562V125.516C207.017 124.973 207.157 124.552 207.435 124.251C207.721 123.951 208.117 123.8 208.623 123.8ZM219.882 122.699V123.558L220.025 124.35L219.882 124.404L219.431 123.744L218.815 123.14L218.243 123.712L218.848 124.327L219.508 124.779L219.453 124.922L218.661 124.779H217.803V125.593H218.661L219.453 125.449L219.508 125.593L218.848 126.044L218.243 126.659L218.815 127.232L219.431 126.627L219.882 125.967L220.025 126.022L219.882 126.814V127.672H220.696V126.814L220.553 126.022L220.696 125.967L221.147 126.627L221.763 127.232L222.335 126.659L221.73 126.044L221.07 125.593L221.125 125.449L221.917 125.593H222.775V124.779H221.917L221.125 124.922L221.07 124.779L221.73 124.327L222.335 123.712L221.763 123.14L221.147 123.744L220.696 124.404L220.553 124.35L220.696 123.558V122.699H219.882Z" fill="#E5C07B"/>
</svg>
