<svg width="144" height="168" viewBox="0 0 144 168" fill="none" xmlns="http://www.w3.org/2000/svg">
<path d="M137.531 25.0547L104.558 80.4815L77.299 34.4493L94.8586 4.93561H125.142L137.531 25.0547Z" fill="#FF6B6B"/>
<rect width="13.7044" height="11.6836" transform="matrix(0.853834 -0.520546 0.509547 0.860443 107.753 120.635)" fill="#A78BFA"/>
<rect width="13.7044" height="15.3348" transform="matrix(0.853834 -0.520546 0.509547 0.860443 95.2712 128.245)" fill="#A78BFA"/>
<rect width="13.7044" height="11.6836" transform="matrix(0.853834 -0.520546 0.509547 0.860443 82.7899 135.854)" fill="#A78BFA"/>
<path d="M103.378 143.726C105.306 146.982 104.25 151.219 101.018 153.189C97.7873 155.159 93.6041 154.116 91.6758 150.86L89.0405 146.41L100.742 139.276L103.378 143.726Z" fill="#A78BFA"/>
<path d="M112.82 152.678C114.749 155.934 113.692 160.171 110.461 162.141C107.23 164.111 103.047 163.068 101.119 159.812L98.4832 155.362L110.185 148.228L112.82 152.678Z" fill="#A78BFA"/>
<path d="M115.871 136.137C117.8 139.394 116.743 143.631 113.512 145.601C110.281 147.571 106.098 146.528 104.169 143.272L95.2708 128.245L106.973 121.111L115.871 136.137Z" fill="#A78BFA"/>
<path d="M128.34 128.507C130.269 131.764 129.212 136.001 125.981 137.971C122.75 139.94 118.567 138.898 116.639 135.641L114.003 131.191L125.705 124.057L128.34 128.507Z" fill="#A78BFA"/>
<path d="M132.4 140.741C134.328 143.997 133.272 148.234 130.041 150.204C126.81 152.174 122.627 151.131 120.698 147.875L118.063 143.425L129.765 136.291L132.4 140.741Z" fill="#A78BFA"/>
<path d="M107.023 135.46L106.126 133.812L105.285 135.502L104.571 135.099L105.554 133.481L103.685 133.603L103.669 132.774L105.535 132.814L104.522 131.236L105.22 130.81L106.117 132.459L106.959 130.769L107.673 131.172L106.689 132.789L108.559 132.668L108.574 133.497L106.708 133.457L107.722 135.034L107.023 135.46Z" fill="#334155"/>
<path d="M115.014 25.3231L125.211 4.99509L137.491 24.9345L115.014 25.3231Z" fill="#D9D9D9"/>
<line y1="-0.25" x2="13.2612" y2="-0.25" transform="matrix(0.549122 0.835742 -0.8283 0.560284 123.395 12.4354)" stroke="#334155" stroke-width="0.5"/>
<line y1="-0.25" x2="10.0753" y2="-0.25" transform="matrix(0.549122 0.835742 -0.8283 0.560284 121.128 15.7355)" stroke="#334155" stroke-width="0.5"/>
<path d="M102.818 83.943L56.2853 162.635H0.0186768L46.7335 83.6354H102.572L102.818 83.943Z" fill="#00B2CA"/>
<path d="M102.813 83.9096L102.793 83.935H46.5664L0 5.15475L0.666016 5.03561H56.1924L102.813 83.9096Z" fill="#00B2CA"/>
<path d="M119.115 113.108L82.4796 135.443L79.2423 129.873L104.284 87.587L119.115 113.108Z" fill="#8B5CF6"/>
</svg>
