<svg width="145" height="136" viewBox="0 0 145 136" fill="none" xmlns="http://www.w3.org/2000/svg">
<path d="M100.878 66.4473L98.7552 69.9033L67.3099 107.508L0.69371 0.0996094L59.7298 0.0996094L100.878 66.4473Z" fill="#0A2540"/>
<path d="M100.512 67.0059L58.6572 134.899H0L66.8301 26.4902L100.512 67.0059Z" fill="#1B263B"/>
<path d="M102.088 64.3828L72.8496 17.2031L83.415 0H141.628L102.088 64.3828ZM113.644 30.7998C113.197 30.7998 112.853 30.8769 112.613 31.0303C112.374 31.1768 112.197 31.3469 112.084 31.54H111.903V30.9404H110.663V37.9004H111.924V35.3301H112.104C112.177 35.4434 112.274 35.5566 112.394 35.6699C112.52 35.7766 112.684 35.863 112.884 35.9297C113.09 36.003 113.344 36.04 113.644 36.04C114.044 36.04 114.414 35.9433 114.754 35.75C115.094 35.55 115.367 35.2598 115.573 34.8799C115.78 34.4999 115.884 34.04 115.884 33.5V33.3398C115.884 32.7999 115.78 32.3399 115.573 31.96C115.367 31.5801 115.094 31.2929 114.754 31.0996C114.414 30.8996 114.044 30.7998 113.644 30.7998ZM95.7607 30.7998C95.1742 30.7999 94.7008 30.9336 94.3408 31.2002C93.981 31.4602 93.8008 31.8368 93.8008 32.3301C93.8008 32.6567 93.8882 32.9232 94.0615 33.1299C94.2348 33.3365 94.4644 33.5001 94.751 33.6201C95.0376 33.7335 95.3545 33.823 95.7012 33.8896L95.9814 33.9404C96.2746 33.9938 96.4878 34.0638 96.6211 34.1504C96.7543 34.2304 96.8213 34.3468 96.8213 34.5C96.8213 34.6532 96.7511 34.783 96.6113 34.8896C96.4713 34.9896 96.2543 35.04 95.9609 35.04C95.7677 35.04 95.5875 35.0133 95.4209 34.96C95.261 34.9 95.124 34.8032 95.0107 34.6699C94.9042 34.5366 94.8279 34.3533 94.7812 34.1201L93.6211 34.4199C93.7078 34.9399 93.9578 35.3401 94.3711 35.6201C94.7844 35.9001 95.3144 36.04 95.9609 36.04C96.5941 36.04 97.0974 35.9 97.4707 35.6201C97.8507 35.3335 98.041 34.9301 98.041 34.4102C98.041 34.0635 97.9514 33.7898 97.7715 33.5898C97.5982 33.3832 97.3574 33.2268 97.0508 33.1201C96.7508 33.0068 96.4143 32.9163 96.041 32.8496L95.7607 32.7998C95.5342 32.7598 95.354 32.7032 95.2207 32.6299C95.0877 32.55 95.0216 32.4301 95.0215 32.2705C95.0215 32.1238 95.0843 32.0097 95.2109 31.9297C95.3375 31.8431 95.521 31.7998 95.7607 31.7998C96.0007 31.7998 96.2013 31.8533 96.3613 31.96C96.5279 32.0666 96.6381 32.2467 96.6914 32.5L97.8613 32.1396C97.748 31.7398 97.5072 31.4165 97.1406 31.1699C96.774 30.9234 96.3139 30.7998 95.7607 30.7998ZM100.045 28.9004V35.9004H101.306V33.3799C101.306 32.9202 101.412 32.5638 101.625 32.3105C101.838 32.0505 102.139 31.9199 102.525 31.9199C102.865 31.92 103.126 32.0136 103.306 32.2002C103.492 32.3869 103.585 32.6669 103.585 33.04V35.9004H104.845V32.9404C104.845 32.5272 104.765 32.1669 104.605 31.8604C104.445 31.547 104.218 31.3032 103.925 31.1299C103.638 30.95 103.302 30.8604 102.915 30.8604C102.622 30.8604 102.379 30.8965 102.186 30.9697C101.999 31.0364 101.849 31.1238 101.735 31.2305C101.622 31.337 101.539 31.4433 101.485 31.5498H101.306V28.9004H100.045ZM107.107 30.9404V35.9004H108.367V30.9404H107.107ZM113.264 31.9004C113.65 31.9004 113.973 32.027 114.233 32.2803C114.493 32.5269 114.624 32.8901 114.624 33.3701V33.4697C114.624 33.9497 114.493 34.317 114.233 34.5703C113.98 34.8168 113.657 34.9404 113.264 34.9404C112.877 34.9404 112.554 34.8168 112.294 34.5703C112.034 34.317 111.903 33.9497 111.903 33.4697V33.3701C111.903 32.8901 112.034 32.5269 112.294 32.2803C112.554 32.027 112.877 31.9004 113.264 31.9004ZM87.0996 31.4004L90.0801 32.3105V32.4902L87.0996 33.4004V34.5996L91.2998 33.1797V31.6201L87.0996 30.2002V31.4004ZM107.737 28.7598C107.511 28.7598 107.317 28.8338 107.157 28.9805C107.004 29.1271 106.928 29.3207 106.928 29.5605C106.928 29.8002 107.004 29.9931 107.157 30.1396C107.317 30.2863 107.511 30.3603 107.737 30.3604C107.971 30.3604 108.164 30.2863 108.317 30.1396C108.47 29.9931 108.547 29.8002 108.547 29.5605C108.547 29.3207 108.471 29.1271 108.317 28.9805C108.164 28.8338 107.971 28.7598 107.737 28.7598ZM94.1006 15.9004V22.9004H95.3408V22.2998H95.5215C95.6348 22.4865 95.8108 22.6572 96.0508 22.8105C96.2908 22.9639 96.6344 23.04 97.0811 23.04C97.4811 23.04 97.8514 22.9433 98.1914 22.75C98.5313 22.55 98.8041 22.2598 99.0107 21.8799C99.2174 21.4999 99.3213 21.04 99.3213 20.5V20.3398C99.3213 19.7999 99.2174 19.3399 99.0107 18.96C98.8041 18.5801 98.5313 18.2929 98.1914 18.0996C97.8514 17.8996 97.4811 17.7998 97.0811 17.7998C96.7811 17.7998 96.5279 17.8369 96.3213 17.9102C96.1213 17.9768 95.9577 18.0633 95.8311 18.1699C95.7111 18.2765 95.6143 18.3898 95.541 18.5098H95.3613V15.9004H94.1006ZM120.072 15.9004V18.5098H119.893C119.826 18.3899 119.729 18.2765 119.603 18.1699C119.476 18.0633 119.309 17.9768 119.103 17.9102C118.903 17.8368 118.653 17.7998 118.353 17.7998C117.953 17.7998 117.582 17.8996 117.242 18.0996C116.902 18.2929 116.629 18.5801 116.423 18.96C116.216 19.3399 116.112 19.7999 116.112 20.3398V20.5C116.112 21.04 116.216 21.4999 116.423 21.8799C116.629 22.2598 116.902 22.55 117.242 22.75C117.589 22.9433 117.959 23.04 118.353 23.04C118.806 23.04 119.149 22.9638 119.383 22.8105C119.623 22.6572 119.8 22.4865 119.913 22.2998H120.093V22.9004H121.333V15.9004H120.072ZM101.538 17.9404V20.9004C101.538 21.3069 101.618 21.6672 101.778 21.9805C101.938 22.2936 102.162 22.5398 102.448 22.7197C102.742 22.893 103.081 22.9804 103.468 22.9805C103.914 22.9805 104.248 22.9001 104.468 22.7402C104.688 22.5802 104.838 22.4167 104.918 22.25H105.098V22.9004H106.338V17.9404H105.078V20.46C105.078 20.92 104.971 21.28 104.758 21.54C104.545 21.7932 104.245 21.9198 103.858 21.9199C103.518 21.9199 103.255 21.8263 103.068 21.6396C102.888 21.453 102.798 21.1731 102.798 20.7998V17.9404H101.538ZM108.84 17.9404V22.9004H110.101V17.9404H108.84ZM112.597 15.9004V22.9004H113.856V15.9004H112.597ZM96.7012 18.9004C97.0945 18.9004 97.4176 19.027 97.6709 19.2803C97.9309 19.5269 98.0615 19.8901 98.0615 20.3701V20.4697C98.0615 20.9497 97.9309 21.317 97.6709 21.5703C97.411 21.8168 97.0877 21.9404 96.7012 21.9404C96.3147 21.9404 95.9914 21.8168 95.7314 21.5703C95.4714 21.317 95.3408 20.9497 95.3408 20.4697V20.3701C95.3408 19.8901 95.4714 19.5269 95.7314 19.2803C95.9914 19.027 96.3145 18.9004 96.7012 18.9004ZM118.732 18.9004C119.126 18.9004 119.449 19.027 119.702 19.2803C119.962 19.5269 120.093 19.8901 120.093 20.3701V20.4697C120.093 20.9497 119.962 21.317 119.702 21.5703C119.442 21.8167 119.119 21.9404 118.732 21.9404C118.346 21.9404 118.023 21.8168 117.763 21.5703C117.503 21.317 117.373 20.9497 117.373 20.4697V20.3701C117.373 19.8902 117.503 19.5269 117.763 19.2803C118.023 19.027 118.346 18.9004 118.732 18.9004ZM87.0996 18.4004L90.0801 19.3105V19.4902L87.0996 20.4004V21.5996L91.2998 20.1797V18.6201L87.0996 17.2002V18.4004ZM109.47 15.7598C109.243 15.7599 109.05 15.8339 108.89 15.9805C108.737 16.1271 108.66 16.3208 108.66 16.5605C108.66 16.8001 108.737 16.9931 108.89 17.1396C109.05 17.2862 109.243 17.3603 109.47 17.3604C109.703 17.3604 109.896 17.2863 110.05 17.1396C110.203 16.9931 110.28 16.8003 110.28 16.5605C110.28 16.3206 110.203 16.1271 110.05 15.9805C109.896 15.8338 109.703 15.7598 109.47 15.7598ZM101.577 3.90039V6.50977H101.397C101.331 6.38983 101.234 6.27654 101.107 6.16992C100.981 6.06328 100.814 5.97682 100.607 5.91016C100.407 5.83683 100.157 5.79981 99.8574 5.7998C99.4574 5.7998 99.0871 5.89962 98.7471 6.09961C98.4071 6.2929 98.1344 6.58009 97.9277 6.95996C97.7211 7.33991 97.6172 7.79994 97.6172 8.33984V8.5C97.6172 9.04 97.7211 9.49988 97.9277 9.87988C98.1344 10.2598 98.4072 10.55 98.7471 10.75C99.0937 10.9433 99.4641 11.04 99.8574 11.04C100.311 11.04 100.654 10.9639 100.888 10.8105C101.128 10.6572 101.304 10.4865 101.417 10.2998H101.598V10.9004H102.837V3.90039H101.577ZM107.574 5.7998C107.081 5.79981 106.648 5.90682 106.274 6.12012C105.901 6.32674 105.611 6.62322 105.404 7.00977C105.198 7.38977 105.095 7.84035 105.095 8.36035V8.48047C105.095 9.00023 105.198 9.45331 105.404 9.83984C105.618 10.2198 105.911 10.5171 106.284 10.7305C106.664 10.9371 107.101 11.04 107.595 11.04C108.048 11.04 108.421 10.9699 108.714 10.8301C109.007 10.6835 109.241 10.5104 109.414 10.3105C109.594 10.1039 109.731 9.91353 109.824 9.74023L108.794 9.2002C108.707 9.38677 108.581 9.55669 108.414 9.70996C108.247 9.86326 107.987 9.94043 107.634 9.94043C107.287 9.94033 106.994 9.83335 106.754 9.62012C106.514 9.4068 106.387 9.12996 106.374 8.79004H109.984V8.36035C109.984 7.85381 109.884 7.41021 109.685 7.03027C109.485 6.6437 109.205 6.34321 108.845 6.12988C108.485 5.90988 108.061 5.7998 107.574 5.7998ZM114.266 5.7998C113.839 5.79982 113.476 5.86669 113.176 6C112.883 6.12663 112.646 6.29653 112.466 6.50977C112.292 6.71643 112.166 6.94686 112.086 7.2002L113.246 7.58984C113.293 7.3633 113.393 7.17998 113.546 7.04004C113.699 6.89343 113.933 6.82031 114.246 6.82031C114.566 6.82037 114.799 6.89676 114.945 7.0498C115.092 7.19647 115.166 7.38678 115.166 7.62012V7.90039H113.806C113.432 7.9004 113.099 7.96009 112.806 8.08008C112.519 8.19335 112.293 8.3665 112.126 8.59961C111.966 8.82628 111.886 9.1102 111.886 9.4502C111.886 9.79014 111.966 10.0803 112.126 10.3203C112.293 10.5535 112.516 10.7337 112.796 10.8604C113.076 10.9803 113.393 11.04 113.746 11.04C114.093 11.04 114.366 10.9896 114.565 10.8896C114.765 10.7896 114.913 10.6765 115.006 10.5498C115.099 10.4168 115.159 10.3104 115.186 10.2305H115.376V10.2402C115.376 10.4402 115.456 10.5998 115.616 10.7197C115.776 10.8396 115.979 10.9004 116.226 10.9004H117.065V9.86035H116.666C116.48 9.86035 116.386 9.76022 116.386 9.56055V7.70996C116.386 7.09001 116.195 6.61669 115.815 6.29004C115.435 5.96348 114.919 5.7998 114.266 5.7998ZM126.45 5.7998C125.957 5.79984 125.524 5.90682 125.15 6.12012C124.777 6.32675 124.487 6.6232 124.28 7.00977C124.074 7.38977 123.971 7.84035 123.971 8.36035V8.48047C123.971 9.00019 124.074 9.45333 124.28 9.83984C124.494 10.2198 124.787 10.5171 125.16 10.7305C125.54 10.9371 125.977 11.04 126.471 11.04C126.924 11.04 127.298 10.9701 127.591 10.8301C127.884 10.6836 128.117 10.5103 128.29 10.3105C128.47 10.104 128.607 9.9135 128.7 9.74023L127.671 9.2002C127.584 9.38686 127.457 9.55663 127.29 9.70996C127.123 9.86315 126.864 9.94039 126.511 9.94043C126.164 9.94043 125.871 9.83329 125.631 9.62012C125.391 9.40678 125.263 9.13004 125.25 8.79004H128.86V8.36035C128.86 7.85378 128.76 7.41023 128.561 7.03027C128.361 6.64365 128.081 6.34321 127.721 6.12988C127.361 5.90988 126.937 5.7998 126.45 5.7998ZM94.1006 5.94043V10.9004H95.3613V5.94043H94.1006ZM119.525 4.40039V5.94043H118.286V6.98047H119.525V9.78027C119.525 10.1199 119.626 10.393 119.825 10.5996C120.032 10.7996 120.299 10.9004 120.626 10.9004H122.025V9.86035H121.065C120.879 9.86026 120.786 9.76014 120.786 9.56055V6.98047H122.146V5.94043H120.786V4.40039H119.525ZM115.166 8.83984V8.94043C115.166 9.26691 115.053 9.53055 114.826 9.73047C114.606 9.92379 114.319 10.0205 113.966 10.0205C113.699 10.0205 113.495 9.96294 113.355 9.84961C113.216 9.73634 113.146 9.58994 113.146 9.41016C113.146 9.23021 113.212 9.09023 113.346 8.99023C113.479 8.89027 113.662 8.83988 113.896 8.83984H115.166ZM100.237 6.90039C100.631 6.90039 100.954 7.02696 101.207 7.28027C101.467 7.52694 101.598 7.89012 101.598 8.37012V8.46973C101.598 8.94973 101.467 9.31698 101.207 9.57031C100.947 9.81681 100.624 9.94043 100.237 9.94043C99.8508 9.94043 99.5275 9.81681 99.2676 9.57031C99.0076 9.31698 98.877 8.94973 98.877 8.46973V8.37012C98.877 7.89012 99.0076 7.52694 99.2676 7.28027C99.5276 7.02696 99.8507 6.90039 100.237 6.90039ZM87.0996 6.40039L90.0801 7.31055V7.49023L87.0996 8.40039V9.59961L91.2998 8.17969V6.62012L87.0996 5.2002V6.40039ZM107.564 6.90039C107.891 6.90042 108.155 6.98686 108.354 7.16016C108.561 7.33338 108.677 7.56324 108.704 7.84961H106.384C106.43 7.56323 106.554 7.33339 106.754 7.16016C106.954 6.98682 107.224 6.90039 107.564 6.90039ZM126.44 6.90039C126.767 6.90039 127.03 6.98682 127.23 7.16016C127.437 7.33339 127.553 7.5632 127.58 7.84961H125.261C125.307 7.56317 125.431 7.33339 125.631 7.16016C125.831 6.98694 126.101 6.90039 126.44 6.90039ZM94.7314 3.75977C94.5048 3.75977 94.3114 3.8338 94.1514 3.98047C93.9981 4.12713 93.9209 4.32057 93.9209 4.56055C93.921 4.8003 93.9982 4.99309 94.1514 5.13965C94.3114 5.28632 94.5048 5.36035 94.7314 5.36035C94.9646 5.36027 95.1583 5.28624 95.3115 5.13965C95.4645 4.99313 95.5409 4.80009 95.541 4.56055C95.541 4.32078 95.4646 4.12708 95.3115 3.98047C95.1583 3.83388 94.9646 3.75985 94.7314 3.75977Z" fill="#E5C07B"/>
<path d="M145 135.062H85.666L73.6211 115.872L102.958 68.0996L145 135.062ZM113.26 128.464C112.966 128.464 112.717 128.563 112.512 128.761C112.314 128.951 112.215 129.201 112.215 129.509C112.215 129.817 112.314 130.07 112.512 130.268C112.717 130.458 112.966 130.554 113.26 130.554C113.56 130.554 113.81 130.458 114.008 130.268C114.206 130.07 114.305 129.817 114.305 129.509C114.305 129.201 114.206 128.951 114.008 128.761C113.81 128.563 113.56 128.464 113.26 128.464ZM119.322 122.546C118.413 122.546 117.684 122.806 117.134 123.326C116.584 123.84 116.309 124.592 116.309 125.582V127.518C116.309 128.537 116.584 129.3 117.134 129.806C117.684 130.304 118.413 130.554 119.322 130.554C120.239 130.554 120.969 130.304 121.512 129.806C122.062 129.3 122.336 128.537 122.336 127.518V125.582C122.336 124.592 122.062 123.84 121.512 123.326C120.969 122.806 120.239 122.546 119.322 122.546ZM125.392 128.464C125.098 128.464 124.849 128.563 124.644 128.761C124.446 128.951 124.347 129.201 124.347 129.509C124.347 129.817 124.446 130.07 124.644 130.268C124.849 130.458 125.098 130.554 125.392 130.554C125.692 130.554 125.942 130.458 126.14 130.268C126.337 130.07 126.436 129.817 126.437 129.509C126.437 129.201 126.337 128.951 126.14 128.761C125.942 128.563 125.692 128.464 125.392 128.464ZM98.8174 124.943L100.555 130.399H102.755L104.493 124.943H103.019L101.754 129.388H101.556L100.291 124.943H98.8174ZM107.362 122.699L105.789 126.176H107.264L108.297 123.733H108.495V130.399H109.903V122.699H107.362ZM119.322 123.8C119.813 123.8 120.202 123.946 120.488 124.239C120.782 124.525 120.929 124.951 120.929 125.516V127.562C120.929 128.119 120.796 128.548 120.532 128.849C120.276 129.149 119.872 129.3 119.322 129.3C118.787 129.3 118.384 129.156 118.112 128.87C117.848 128.577 117.717 128.141 117.717 127.562V125.516C117.717 124.973 117.856 124.552 118.135 124.251C118.421 123.95 118.816 123.8 119.322 123.8ZM130.582 122.699V123.558L130.725 124.35L130.582 124.404L130.131 123.744L129.515 123.14L128.942 123.712L129.548 124.327L130.208 124.778L130.152 124.922L129.36 124.778H128.503V125.593H129.36L130.152 125.449L130.208 125.593L129.548 126.044L128.942 126.659L129.515 127.231L130.131 126.627L130.582 125.967L130.725 126.021L130.582 126.813V127.672H131.396V126.813L131.253 126.021L131.396 125.967L131.847 126.627L132.463 127.231L133.034 126.659L132.43 126.044L131.77 125.593L131.824 125.449L132.616 125.593H133.475V124.778H132.616L131.824 124.922L131.77 124.778L132.43 124.327L133.034 123.712L132.463 123.14L131.847 123.744L131.396 124.404L131.253 124.35L131.396 123.558V122.699H130.582Z" fill="#E5C07B"/>
</svg>
